<?xml version="1.0" standalone="no"?><!DOCTYPE svg PUBLIC "-//W3C//DTD SVG 1.1//EN" "http://www.w3.org/Graphics/SVG/1.1/DTD/svg11.dtd"><svg t="1604217399529" class="icon" viewBox="0 0 1024 1024" version="1.1" xmlns="http://www.w3.org/2000/svg" p-id="3079" xmlns:xlink="http://www.w3.org/1999/xlink" width="200" height="200"><defs><style type="text/css"></style></defs><path d="M758.93 364.2v439.88c0 36.84-29.97 66.81-66.81 66.81H335.78c-36.84 0-66.81-29.97-66.81-66.81V364.2h489.96m66.82-66.82h-623.6v506.7c0 73.8 59.83 133.63 133.63 133.63h356.34c73.8 0 133.63-59.83 133.63-133.63v-506.7z" fill="#231815" p-id="3080"></path><path d="M624.83 193.39H403.06c0-61.24 49.64-110.88 110.88-110.88s110.89 49.64 110.89 110.88z" fill="#F7B52C" p-id="3081"></path><path d="M825.75 248.36h-625.5c-18.45 0-33.41-14.96-33.41-33.41s14.96-33.41 33.41-33.41h625.5c18.45 0 33.41 14.96 33.41 33.41s-14.96 33.41-33.41 33.41z" fill="#231815" p-id="3082"></path><path d="M513 801.76c-18.45 0-33.41-14.96-33.41-33.41V465.2c0-18.45 14.96-33.41 33.41-33.41s33.41 14.96 33.41 33.41v303.15c0 18.45-14.96 33.41-33.41 33.41zM360.42 803.3c-18.45 0-33.41-14.96-33.41-33.41V581.06c0-18.45 14.96-33.41 33.41-33.41s33.41 14.96 33.41 33.41v188.83c0 18.45-14.96 33.41-33.41 33.41zM665.58 803.3c-18.45 0-33.41-14.96-33.41-33.41V581.06c0-18.45 14.96-33.41 33.41-33.41s33.41 14.96 33.41 33.41v188.83c0 18.45-14.96 33.41-33.41 33.41z" fill="#F7B52C" p-id="3083"></path></svg>